<svg width="78" height="80" viewBox="0 0 78 80" fill="none" xmlns="http://www.w3.org/2000/svg">
<path fill-rule="evenodd" clip-rule="evenodd" d="M37.2692 2.2111L37.6688 2.37094L37.7067 2.38664C38.4423 2.69083 38.4728 2.70347 38.761 3.46317L38.9208 3.86277C38.9475 3.94269 39.0274 3.99597 39.134 3.99597C39.2139 3.99597 39.2938 3.94269 39.3471 3.86277L39.5069 3.46317L39.5226 3.42524C39.8268 2.68966 39.8394 2.65911 40.5991 2.37094L40.9987 2.2111C41.0787 2.18446 41.1319 2.10454 41.1319 1.99798C41.1319 1.91806 41.0787 1.83815 40.9987 1.78487L40.5991 1.62503L40.5612 1.60934C39.8256 1.30514 39.7951 1.2925 39.5069 0.532795L39.3471 0.133199C39.3204 0.0532795 39.2139 0 39.134 0C39.054 0 38.9741 0.0266398 38.9208 0.133199L38.761 0.532795L38.7453 0.570718C38.4411 1.30631 38.4285 1.33686 37.6688 1.62503L37.2692 1.78487C37.1893 1.81151 37.136 1.89142 37.136 1.99798C37.136 2.10454 37.1893 2.18446 37.2692 2.2111ZM38.0684 1.97135C38.7077 1.70495 38.8143 1.59839 39.0807 0.959033C39.1073 0.932394 39.1606 0.932394 39.1872 0.959033C39.4536 1.59839 39.5602 1.70495 40.1996 1.97135C40.2262 1.97135 40.2262 1.99798 40.2262 2.02462C40.2262 2.03594 40.2262 2.04245 40.2241 2.04824C40.2214 2.05607 40.2149 2.06258 40.1996 2.07789L40.1996 2.0779C39.5602 2.3443 39.4536 2.45086 39.1872 3.09022V3.14349C39.1872 3.17013 39.1606 3.19677 39.134 3.19677C39.1073 3.19677 39.0807 3.17013 39.0807 3.14349V3.09022C38.8143 2.45086 38.7077 2.3443 38.0684 2.0779C38.0417 2.0779 38.0417 2.05126 38.0417 2.02462C38.0417 1.99798 38.0417 1.97135 38.0684 1.97135ZM50.6156 77.255C50.6156 77.2816 50.8287 79.9722 52.0541 79.9722V79.9989H56.8493C56.3266 79.0319 56.1885 78.1675 56.0828 77.5063L56.0767 77.4681L56.0501 77.3082C54.6648 76.7222 54.0255 76.3492 53.466 75.4435C53.3889 75.5013 53.3118 75.615 53.2447 75.7138L53.2447 75.7139L53.2446 75.7139L53.2446 75.714L53.2445 75.714L53.2445 75.7141C53.219 75.7517 53.195 75.7871 53.173 75.8164L53.1614 75.8337C52.8424 76.3124 52.3918 76.9886 51.6812 76.9886C51.548 76.9886 51.4148 76.9619 51.2816 76.9086C51.2283 76.882 51.1484 76.8287 51.1217 76.7488C51.0951 76.6955 51.0951 76.6156 51.1217 76.5357C51.1484 76.4824 51.2016 76.4025 51.2816 76.3758C51.3348 76.3492 51.3615 76.3492 51.4148 76.3492C51.4459 76.3492 51.468 76.3583 51.4863 76.3659L51.4863 76.3659C51.4992 76.3713 51.5103 76.3758 51.5213 76.3758C51.6012 76.4025 51.6812 76.4025 51.7344 76.4025C52.1074 76.4025 52.4271 76.0029 52.7467 75.4967C53.0131 75.0971 53.2263 74.8041 53.5459 74.8041C53.7324 74.8041 53.8923 74.9107 54.0255 75.1238C54.0787 75.2303 54.1586 75.3368 54.2385 75.4434L54.2386 75.4435C53.95 74.499 53.9198 73.3478 53.8935 72.3462L53.8923 72.2999V72.22C53.8656 71.9803 53.8656 71.7672 53.8656 71.554C53.8515 71.4127 53.8448 71.2563 53.8377 71.0889V71.0888L53.8377 71.0885C53.8315 70.9406 53.8248 70.784 53.8123 70.6217L53.8035 70.4444C53.6965 68.2921 53.5438 65.2217 54.425 63.5888C54.4517 63.5355 54.505 63.4822 54.5583 63.4556C55.0644 63.2158 55.091 62.683 55.0378 61.0047C55.0111 60.2588 54.9845 59.2997 55.0378 58.1276C55.1443 54.771 56.796 51.4677 57.5952 49.8693L57.6218 49.816C57.6618 49.7228 57.7017 49.6429 57.7384 49.5696L57.7384 49.5696L57.7384 49.5695C57.775 49.4963 57.8083 49.4297 57.8349 49.3631C58.1013 48.777 58.0214 48.1377 57.9149 47.3918C57.8349 46.8323 57.755 46.2463 57.8083 45.6069C57.8349 45.4471 57.9415 45.3405 58.128 45.3405C58.2878 45.3405 58.421 45.5003 58.3944 45.6602C58.3411 46.2462 58.421 46.779 58.5009 47.3118L58.5009 47.3118L58.5034 47.3307C58.6091 48.1232 58.7113 48.8895 58.3677 49.6295C58.3161 49.7155 58.2645 49.8238 58.2057 49.9471L58.2056 49.9473L58.1628 50.0368C58.1432 50.0774 58.1228 50.1193 58.1013 50.1623V50.1357L58.0747 50.1623H58.1013C57.755 50.8549 57.2489 51.8939 56.7694 53.1193C57.4353 52.8529 58.128 52.6132 58.8473 52.4C60.3924 51.9205 61.8309 51.4677 62.6834 50.5619C65.3245 47.7095 66.7611 42.9195 67.2529 41.2799L67.2654 41.238C67.5851 40.1724 67.5851 37.7748 67.5851 36.0166C67.5851 35.8627 67.5924 35.7015 67.5994 35.5484C67.6057 35.4099 67.6117 35.278 67.6117 35.1641C67.3453 35.4571 67.0257 35.6969 66.6793 35.8834C66.6261 35.91 66.5994 35.91 66.5461 35.91C66.4396 35.91 66.333 35.8568 66.2797 35.7502C66.2265 35.6969 66.2265 35.617 66.2531 35.5371C66.2797 35.4838 66.333 35.4039 66.4129 35.3772C68.038 34.5514 68.2511 32.2604 68.2511 29.9161V29.3034L68.2511 29.1934V29.1934C68.2515 26.5167 68.2522 21.1567 66.4129 17.6884C65.2941 18.2212 64.0953 18.4876 62.8166 18.4876C61.7243 18.4876 60.6321 18.3011 59.5665 17.9015C59.4333 17.8483 59.3534 17.7151 59.3801 17.5819C59.4067 17.4487 59.5132 17.3421 59.6464 17.3155C61.8575 17.0757 63.6691 16.3831 64.8678 15.2908C64.415 14.4917 62.0174 10.6822 58.6341 8.8973C58.3677 9.27026 58.1546 9.64321 58.0214 10.0694C58.8473 10.2826 59.1936 10.6289 59.4866 10.9219C59.5243 10.9554 59.56 10.9882 59.5947 11.0202C59.7812 11.1917 59.9406 11.3383 60.2325 11.4281C60.3124 11.4547 60.3924 11.5346 60.419 11.6146C60.4456 11.6945 60.4456 11.801 60.3924 11.881C59.8329 12.7601 58.3411 13.4261 56.7694 13.5326H56.3698C54.9845 13.5326 53.839 13.0797 53.1463 12.2539C53.0931 12.2006 53.0664 12.1207 53.0664 12.0408C53.0664 11.9609 53.1197 11.881 53.173 11.8277C53.2263 11.7744 53.2795 11.7478 53.3595 11.7478H53.3861C53.466 11.7478 53.5459 11.801 53.5992 11.8543C54.1853 12.5469 55.171 12.9199 56.3698 12.9199H56.7427C57.9149 12.84 59.087 12.4137 59.6731 11.8277C59.4333 11.6945 59.2468 11.508 59.087 11.3482C58.7673 11.0285 58.4743 10.7354 57.6218 10.5756C57.5817 10.5706 57.5434 10.5656 57.5066 10.5607C57.3476 10.5399 57.2137 10.5223 57.0624 10.5223C56.6095 10.5223 56.2366 10.6555 55.8902 10.7887C55.5706 10.9219 55.2242 11.0551 54.798 11.0551C54.4783 11.0551 54.1054 10.9752 53.7324 10.7887C53.6953 10.7701 53.6711 10.7386 53.6508 10.7122C53.642 10.7007 53.6339 10.6902 53.6259 10.6822C53.5992 10.6555 53.5726 10.6022 53.5726 10.5223C53.7857 7.35219 55.9702 2.66359 61.1116 2.66359C63.5625 2.66359 65.5338 3.48943 66.9724 5.11445C68.6773 7.05916 69.2634 9.74977 69.0503 11.4547C68.5974 15.2376 66.0933 17.3687 61.6444 17.8483C62.044 17.9015 62.4436 17.9282 62.8166 17.9282C64.4416 17.9282 65.9867 17.4487 67.2921 16.5429C69.3966 15.0511 70.6487 12.6002 70.6487 9.96289C70.6487 4.55502 66.2265 0.132812 60.8186 0.132812C55.4107 0.132812 50.9885 4.55502 50.9885 9.96289C50.9885 10.1227 50.8553 10.2559 50.6955 10.2559C50.5356 10.2559 50.4024 10.1227 50.4024 9.96289C50.4024 9.40346 50.4557 8.84402 50.5356 8.28458C48.5643 8.79074 47.179 9.90961 46.7262 10.7354C46.6462 10.8953 46.593 11.0285 46.5663 11.135C46.6995 11.135 46.8327 11.1617 46.9659 11.215C47.0192 11.2416 47.0991 11.2949 47.1258 11.3748C47.1524 11.4281 47.1524 11.508 47.1258 11.5879C47.0991 11.6412 47.0458 11.7211 46.9659 11.7478C46.9126 11.7744 46.886 11.7744 46.8327 11.7744C46.8015 11.7744 46.7794 11.7653 46.7612 11.7577C46.7482 11.7523 46.7372 11.7478 46.7262 11.7478C46.6462 11.7211 46.5663 11.6945 46.4864 11.6945C46.22 11.6945 45.9003 11.8277 45.6339 12.0674C44.9679 12.6801 42.304 15.424 41.558 17.6884C41.5447 17.7017 41.5381 17.7151 41.5314 17.7284C41.5247 17.7417 41.5181 17.755 41.5048 17.7683C41.0785 18.3011 40.7589 18.9405 40.6523 19.4466C40.8654 19.7397 41.0252 19.9794 41.1052 20.1126L41.3183 20.086C41.6646 19.6864 42.0908 19.127 42.2507 18.9139C42.304 18.8606 42.3572 18.8073 42.4372 18.8073H42.4904C42.5704 18.8073 42.6236 18.8339 42.6769 18.8606C42.8101 18.9671 42.8368 19.1536 42.7302 19.2868C42.5437 19.5266 42.1441 20.0327 41.8244 20.4057C42.1708 20.9385 42.9433 21.6045 43.3429 21.9242C44.0997 21.5849 44.6775 20.8623 45.1014 20.3321L45.1278 20.2991C45.1445 20.2769 45.16 20.2558 45.1748 20.2356C45.2311 20.1592 45.2777 20.096 45.3409 20.0327C45.3675 19.9794 45.4208 19.9528 45.4741 19.9262C45.7138 19.8729 45.9536 19.8462 46.1134 19.8462H46.2733C46.4331 19.8462 46.5663 20.0061 46.5397 20.1659C46.5397 20.2458 46.4864 20.3258 46.4331 20.379C46.3798 20.4323 46.3266 20.459 46.2466 20.459H46.22H46.1134H46.1134C46.0068 20.459 45.8736 20.459 45.7405 20.4856L45.5807 20.6721C45.2343 21.125 44.7815 21.6577 44.222 22.084C44.4884 22.1639 44.7815 22.2172 45.1544 22.2172H45.6606C46.3266 21.3381 48.6176 20.6987 49.4434 20.5922H49.4701H49.55C51.8676 21.125 53.9189 22.4836 55.6505 24.6148C55.7304 24.748 55.7304 24.9344 55.5972 25.041C55.5439 25.0676 55.4906 25.0943 55.4107 25.0943H55.3841C55.3308 25.0943 55.2509 25.041 55.1976 24.9877C54.5316 24.1885 53.839 23.4693 53.0931 22.9098C53.173 23.4693 53.173 24.1619 53.1463 24.748V25.3607C53.1463 26.2664 53.5726 27.9181 54.6648 28.7706C54.798 28.8771 54.8246 29.0636 54.7181 29.1968C54.6648 29.2501 54.5583 29.3034 54.4783 29.3034C54.3984 29.3034 54.3451 29.2767 54.2919 29.2501C53.4394 28.6107 52.8267 27.4652 52.6135 26.1865C51.2283 27.7316 48.1913 29.037 46.886 29.3034C46.6462 29.3566 46.3532 29.3833 45.9536 29.3833C45.201 29.3833 44.2153 29.2901 42.9967 29.1749C42.6194 29.1392 42.2198 29.1014 41.7978 29.0636C39.0539 28.7972 35.6174 28.4775 32.0476 28.4775C27.5722 28.4775 23.816 28.957 20.779 29.3566C19.2339 29.5698 17.9019 29.7296 16.7564 29.8095C15.4082 29.8844 14.2472 29.9125 13.2076 29.9377L13.0002 29.9427C12.8409 29.9457 12.6856 29.9484 12.5344 29.951H12.5343H12.5343H12.5342L12.5339 29.951L12.5334 29.951H12.5333C11.3456 29.9714 10.4117 29.9874 9.75015 30.1292C8.23169 30.4222 5.94067 31.2481 5.56771 31.9673C3.80949 35.4571 2.82381 37.9879 2.87709 38.867C2.90373 39.4531 3.25005 44.6745 6.81978 49.4697C10.2563 54.105 11.6682 56.7956 11.6682 58.767C11.6682 60.4719 11.0022 61.5641 10.8157 61.8305C10.8957 63.1092 11.2153 63.8551 11.908 64.4412C12.867 65.2404 17.2892 74.0848 17.6622 75.6566C17.8753 76.5357 18.115 77.5213 18.4347 77.6545C18.4614 77.6812 18.488 77.6812 18.5146 77.6812C18.5946 77.6812 18.6745 77.6545 18.781 77.6013C18.8077 77.5746 18.861 77.5746 18.9142 77.5746C18.9276 77.5746 18.9475 77.5813 18.9675 77.588C18.9875 77.5946 19.0075 77.6013 19.0208 77.6013C19.1007 77.6279 19.1806 77.6812 19.2073 77.7611C19.5003 78.4804 20.3261 79.9722 21.0721 79.9722H25.8139C24.9881 78.7734 24.3487 77.2816 24.1889 76.8554C23.6028 76.6955 23.07 76.4824 22.6704 76.2959L22.6008 76.2654C22.2121 76.0951 21.9408 75.9762 21.7647 75.9762C21.7114 75.9762 21.6581 76.0029 21.6315 76.0295C21.4983 76.1627 21.4983 76.2426 21.5249 76.4025C21.5516 76.6422 21.5782 77.0152 21.0721 77.2283C20.9655 77.2816 20.8323 77.3082 20.6725 77.3082C19.9532 77.3082 19.1806 76.7222 19.1806 76.7222C19.1274 76.6955 19.0741 76.6156 19.0741 76.5357C19.0741 76.4558 19.0741 76.3758 19.1274 76.3226C19.1806 76.2426 19.2605 76.1894 19.3671 76.1894C19.447 76.1894 19.5003 76.216 19.5536 76.2426C19.8733 76.4824 20.3528 76.7222 20.6725 76.7222C20.7524 76.7222 20.8057 76.7222 20.8589 76.6955C20.9921 76.6422 20.9921 76.6422 20.9655 76.4824C20.9389 76.2693 20.9122 75.9496 21.2319 75.6299C21.3651 75.4967 21.5516 75.4168 21.7647 75.4168C21.8979 75.4168 22.0311 75.4168 22.1643 75.4701C20.3261 72.9127 17.6089 66.8921 17.2359 65.5335C16.7831 63.8551 18.0884 61.4842 19.3671 59.1932C20.2462 57.6214 21.1253 55.9964 21.3385 54.771C22.1643 49.7361 20.3794 47.2319 18.4614 44.568L18.4047 44.4878L18.4046 44.4878C17.6498 43.4209 16.874 42.3243 16.2503 41.0249C15.7441 39.9859 16.49 38.4674 17.9286 37.615C17.9818 37.5883 18.0351 37.5617 18.0884 37.5617H18.1683C18.2482 37.5883 18.3015 37.615 18.3548 37.6949C18.3814 37.7482 18.4081 37.8281 18.3814 37.908C18.3548 37.9879 18.3282 38.0412 18.2482 38.0945C17.1027 38.7871 16.4367 39.9593 16.8097 40.7318C17.3837 41.9842 18.1622 43.0577 18.9198 44.1025L18.9198 44.1026L18.9675 44.1684L18.998 44.2111C20.7735 46.702 22.6138 49.2837 22.0311 54.0251C22.7237 54.4513 25.068 55.8632 26.4266 56.4759C27.439 56.9288 30.1829 57.1419 32.4472 57.1419C33.8858 57.1419 35.1379 57.062 35.9637 56.9288C36.5604 56.8294 37.4095 56.5963 38.4224 56.3182C38.7662 56.2239 39.1288 56.1243 39.5068 56.0231C42.0908 55.3038 45.2876 54.4247 47.552 54.2648C47.5254 53.6788 47.4721 53.2259 47.4188 52.8529C47.1524 51.2545 46.7262 50.2955 45.6073 48.9369C45.554 48.857 45.5274 48.7504 45.554 48.6705C45.5807 48.5906 45.6606 48.5106 45.7405 48.484C45.7405 48.484 46.3266 48.2709 46.9126 47.8713H45.4475C45.3409 47.8713 45.2343 47.7914 45.1811 47.6848C45.1278 47.5782 45.181 47.4451 45.261 47.3651C45.8204 46.859 46.22 45.234 46.22 43.3692C46.22 43.2093 46.3532 43.0761 46.513 43.0761C46.593 43.0761 46.6729 43.1028 46.7262 43.156C46.7794 43.2093 46.8061 43.2892 46.8061 43.3692C46.8061 44.6212 46.6196 46.2995 46.0602 47.2852H47.7385C47.845 47.2852 47.9516 47.3651 48.0049 47.4717C48.0581 47.5782 48.0315 47.7114 47.9516 47.7914C47.4454 48.3508 46.7528 48.7238 46.3532 48.9102C47.3389 50.1889 47.7651 51.2279 48.0315 52.7996C48.1647 53.6521 48.218 54.771 48.2446 55.8632L48.2451 55.882V55.882V55.8821C48.2716 56.9417 48.2987 58.0259 48.4311 58.8469C48.5643 59.6727 48.9639 60.8715 49.3635 62.0436C49.4181 62.2114 49.4727 62.3775 49.5265 62.541L49.5272 62.5431C49.8404 63.4951 50.1251 64.3605 50.216 64.974C50.3758 66.1994 50.8287 74.5111 50.4557 75.3635L50.4024 75.4701L50.3722 75.539C50.1838 75.9676 49.9046 76.6029 50.0561 76.8554C50.0587 76.8579 50.0615 76.861 50.0647 76.8645C50.0945 76.8969 50.1566 76.9645 50.3492 76.9886C50.509 76.9886 50.6156 77.1217 50.6156 77.255ZM12.9736 61.0313C13.0002 61.0047 13.0535 61.0047 13.0801 61.0047C13.1334 61.0047 13.16 61.0047 13.1867 61.058C13.2666 61.0846 13.3199 61.1379 13.3465 61.2178C13.3732 61.2711 13.3732 61.351 13.3465 61.4309C12.9203 62.4166 13.8793 63.8552 14.2523 64.4146C14.3056 64.4679 14.3322 64.5478 14.3056 64.6277C14.2789 64.7076 14.2256 64.7609 14.1724 64.8142C14.1191 64.8408 14.0658 64.8675 14.0125 64.8675H13.9592C13.8793 64.8408 13.826 64.7875 13.7728 64.7343C13.0535 63.6687 12.3076 62.31 12.8137 61.1912C12.8404 61.1113 12.8936 61.058 12.9736 61.0313ZM52.6135 62.4166C52.6402 62.39 52.6935 62.39 52.7467 62.39C52.7734 62.39 52.8 62.39 52.8267 62.3633C52.9066 62.39 52.9865 62.4166 53.0131 62.4965C53.1463 62.7361 53.2527 62.9757 53.3592 63.2153L53.3592 63.2153L53.3593 63.2154L53.3593 63.2154L53.3593 63.2155L53.3593 63.2155L53.3593 63.2156L53.3594 63.2156L53.3594 63.2156L53.3595 63.2158C53.3861 63.2957 53.3861 63.3756 53.3595 63.4556C53.3328 63.5355 53.2795 63.5888 53.1996 63.6154C53.173 63.642 53.1197 63.642 53.0931 63.642C53.0664 63.642 53.0131 63.642 52.9865 63.6154C52.9066 63.5888 52.8533 63.5355 52.8267 63.4556L52.507 62.8162C52.4804 62.7629 52.4537 62.683 52.4804 62.6031C52.507 62.5232 52.5336 62.4432 52.6135 62.4166ZM50.3492 60.1522C50.4024 60.0723 50.4824 60.019 50.5889 60.019C50.6078 60.019 50.6267 60.0224 50.6444 60.0255C50.6766 60.0312 50.7049 60.0362 50.7221 60.019C50.7257 60.0226 50.7419 60.0345 50.769 60.0542L50.7692 60.0544C50.9429 60.1813 51.5617 60.6333 52.1607 61.3244C52.2672 61.4576 52.2672 61.6441 52.134 61.7506C52.0807 61.8039 52.0275 61.8305 51.9476 61.8305C51.8676 61.8305 51.7877 61.7772 51.7344 61.724C51.1361 61.0216 50.5378 60.624 50.4356 60.5561L50.4291 60.5518C50.3492 60.4985 50.3225 60.4453 50.2959 60.3653C50.2959 60.2854 50.2959 60.2055 50.3492 60.1522ZM8.44481 48.4041C8.49809 48.3774 8.55136 48.3508 8.60464 48.3508C8.7112 48.3508 8.79112 48.4041 8.8444 48.5106C10.3362 50.9349 13.2932 54.3714 15.3445 56.3694C15.4511 56.5026 15.4511 56.689 15.3445 56.7956C15.2912 56.8489 15.2113 56.8755 15.1314 56.8755C15.0515 56.8755 14.9716 56.8489 14.9183 56.7956C12.8404 54.771 9.83007 51.2812 8.33825 48.8037C8.25833 48.6705 8.31161 48.484 8.44481 48.4041ZM50.1195 54.3747C50.3104 54.2496 51.1814 53.6788 52.2939 53.6788C52.3471 53.6788 52.4004 53.6788 52.4804 53.6255C52.5603 53.6255 52.6402 53.6788 52.6935 53.732C52.7467 53.7853 52.7734 53.8652 52.7734 53.9452C52.7734 54.0251 52.7201 54.105 52.6668 54.1583C52.6135 54.2116 52.5336 54.2382 52.4804 54.2382H52.4537H52.3205C51.2816 54.2382 50.4557 54.8509 50.4557 54.8509C50.4024 54.8775 50.3225 54.9042 50.2692 54.9042C50.1627 54.9042 50.0828 54.8775 50.0295 54.7976C49.9762 54.7443 49.9762 54.6644 49.9762 54.5845C49.9762 54.5046 50.0295 54.4513 50.0828 54.398C50.0877 54.3956 50.1001 54.3875 50.1195 54.3747ZM51.0951 52.2935H51.175C51.2016 52.2935 51.2549 52.2935 51.3348 52.2668L51.3349 52.2669C51.3881 52.3201 51.4414 52.3734 51.468 52.4533C51.4947 52.5066 51.468 52.5865 51.4414 52.6664C51.3881 52.7197 51.3348 52.773 51.2549 52.7996C50.9352 52.9062 50.7488 52.9861 50.6955 53.0128C50.6688 53.0394 50.6156 53.0394 50.5889 53.0394C50.4824 53.0394 50.3758 52.9861 50.3225 52.8796C50.2959 52.8263 50.2959 52.7464 50.3225 52.6664C50.3492 52.5865 50.4024 52.5332 50.4824 52.5066C50.4912 52.5066 50.5208 52.4948 50.5702 52.475C50.6688 52.4356 50.8464 52.3645 51.0951 52.2935ZM54.9046 53.0394C54.3451 52.7464 53.7324 52.5865 53.0131 52.5865C52.8799 52.5865 52.7467 52.5865 52.6135 52.6398C52.5336 52.6398 52.4803 52.6132 52.4271 52.5599C52.3738 52.5066 52.3205 52.4267 52.3205 52.3468C52.2939 52.1869 52.4271 52.0271 52.5869 52.0271C52.7201 52.0005 52.8799 52.0005 53.0131 52.0005C53.839 52.0005 54.5582 52.1869 55.1976 52.5332C55.2509 52.5865 55.3042 52.6398 55.3308 52.7197C55.3574 52.773 55.3308 52.8529 55.3042 52.9328C55.2509 52.9861 55.1976 53.0394 55.1177 53.066H55.0378C54.9845 53.066 54.9579 53.066 54.9046 53.0394ZM44.595 51.6808C44.6216 51.5742 44.7548 51.4943 44.8614 51.4943C44.9147 51.4943 44.9413 51.4943 44.9946 51.5476C45.1326 51.5993 45.2706 51.6623 45.4014 51.7219C45.4726 51.7543 45.5416 51.7858 45.6073 51.814C45.7405 51.8939 45.8204 52.0537 45.7405 52.2136C45.7138 52.2935 45.5806 52.3734 45.4741 52.3734C45.4208 52.3734 45.3675 52.3734 45.3409 52.3468C45.1967 52.2644 45.0366 52.1979 44.8853 52.1351L44.8852 52.135L44.8846 52.1348C44.8404 52.1165 44.7969 52.0984 44.7548 52.0804C44.6749 52.0537 44.6216 52.0004 44.595 51.9205C44.5683 51.8406 44.5683 51.7607 44.595 51.6808ZM32.021 51.9205C29.6501 50.8017 27.732 50.4553 27.5455 50.4287C27.0394 50.5086 26.4 50.6152 25.5475 50.8017H25.4943C25.3611 50.8017 25.2279 50.6951 25.2012 50.5619C25.1746 50.4021 25.2811 50.2422 25.441 50.2156C26.2668 50.0291 26.9594 49.9225 27.4922 49.8426H27.5189H27.5722C27.6521 49.8426 29.2771 50.109 31.4083 51.0148L30.8755 50.0824C30.8222 49.9758 30.8222 49.8693 30.8755 49.7893C30.9288 49.6828 31.0087 49.6295 31.1152 49.6295C31.5681 49.6029 32.2874 49.5762 33.2198 49.5762C35.7506 49.5762 39.5068 49.7894 42.9966 50.8283C43.0765 50.8549 43.1564 50.8816 43.1831 50.9615C43.2364 51.0148 43.2363 51.0947 43.2097 51.1746C43.1564 51.3078 43.0499 51.3877 42.9167 51.3877H42.8368C39.4269 50.3754 35.6973 50.1623 33.1932 50.1623H33.1927C32.6601 50.1623 32.1541 50.1623 31.648 50.1889L32.394 51.4943C32.4739 51.6009 32.4472 51.7341 32.3673 51.8406C32.314 51.9205 32.2341 51.9472 32.1542 51.9472C32.1009 51.9472 32.0476 51.9472 32.021 51.9205ZM24.0824 50.5086H24.1356C24.2688 50.5086 24.402 50.6152 24.4287 50.7484C24.4819 50.9082 24.3754 51.0681 24.2156 51.0947C24.1036 51.1252 24.0033 51.1519 23.9176 51.1746L23.9173 51.1747C23.7789 51.2115 23.6788 51.2381 23.6295 51.2545H23.6028H23.5229C23.4696 51.2545 23.4164 51.2279 23.3631 51.2013C23.3098 51.148 23.2565 51.0947 23.2299 51.0148C23.2032 50.9615 23.2032 50.8816 23.2565 50.8017C23.3098 50.7484 23.3631 50.6951 23.443 50.6685C23.5229 50.6418 23.7094 50.5885 24.0824 50.5086ZM7.64561 46.3795H7.69889C7.83209 46.3795 7.96529 46.4594 7.99193 46.5926C8.01857 46.7258 8.07185 46.8856 8.12513 47.0455C8.15177 47.0987 8.15177 47.1786 8.12513 47.2586C8.09849 47.3385 8.04521 47.3918 7.96529 47.4184C7.93865 47.445 7.88537 47.445 7.85873 47.445C7.80545 47.445 7.75217 47.445 7.72553 47.4184C7.64561 47.3918 7.59233 47.3385 7.56569 47.2586C7.48577 47.0721 7.43249 46.8856 7.40585 46.7258C7.40585 46.6459 7.40586 46.5926 7.45914 46.5127C7.51242 46.4327 7.56569 46.4061 7.64561 46.3795ZM66.0134 37.2953C66.0666 37.242 66.1199 37.2154 66.1998 37.2154C66.3064 37.2154 66.3863 37.2687 66.3863 37.3486C66.4396 37.4019 66.4662 37.4818 66.4662 37.5617C66.3863 38.9203 65.5871 41.238 65.1342 42.4634L65.1076 42.5167C65.0277 42.7831 64.9478 42.9962 64.8945 43.1294C64.7879 43.5024 64.8146 43.822 64.9211 43.9819C64.9744 44.0618 65.001 44.0884 65.0543 44.0884C65.2142 44.0884 65.3474 44.2483 65.3207 44.4081C65.2941 44.568 65.1875 44.6745 65.0277 44.6745H65.001C64.7879 44.6479 64.5748 44.5147 64.4416 44.3016C64.2285 43.9552 64.2019 43.4491 64.3617 42.9429C64.4149 42.8098 64.4948 42.5703 64.6012 42.2509L64.6013 42.2507L64.6014 42.2503L64.6673 42.0612C65.105 40.8057 65.8308 38.7238 65.9068 37.5084C65.9068 37.4285 65.9601 37.3486 66.0134 37.2953ZM59.1403 42.6232C59.1936 42.5966 59.2469 42.57 59.3001 42.57C59.3268 42.57 59.3534 42.5966 59.3801 42.6232C59.46 42.6499 59.5133 42.6765 59.5665 42.7564C59.6465 42.8896 59.5932 43.0761 59.46 43.156C59.3534 43.236 59.3001 43.5024 59.4067 43.7421C59.4866 43.9286 59.6731 44.0352 59.8862 44.0352C59.9928 44.0352 60.126 44.0085 60.2592 43.9552C61.378 43.5556 62.7367 41.1048 63.6691 37.7215C63.6957 37.6416 63.7223 37.5617 63.8023 37.535C63.8133 37.535 63.8289 37.5305 63.8472 37.5251C63.873 37.5176 63.9042 37.5084 63.9355 37.5084H64.0154C64.1752 37.5617 64.2818 37.7215 64.2285 37.8814C63.8289 39.24 62.4436 43.7954 60.4456 44.5147C60.2325 44.5946 60.046 44.6212 59.8596 44.6212C59.2202 44.6212 58.9272 44.1684 58.8473 43.9819C58.6075 43.4491 58.7407 42.863 59.1403 42.6232ZM46.1934 40.6519H46.2733C46.4065 40.6519 46.513 40.7585 46.5397 40.865C46.593 41.0515 46.6462 41.2646 46.6729 41.4777C46.6729 41.5577 46.6729 41.6376 46.6196 41.6909C46.593 41.7708 46.513 41.7974 46.4331 41.8241H46.3798C46.3266 41.8241 46.2733 41.7974 46.22 41.7708C46.1401 41.7441 46.1134 41.6642 46.0868 41.5843C46.0602 41.3712 46.0335 41.1847 45.9802 41.0249C45.9536 40.865 46.0335 40.7052 46.1934 40.6519ZM56.5562 39.6929C56.5562 39.24 56.9025 38.7605 57.5153 38.7605C57.7017 38.7605 57.8349 38.8937 57.7817 39.0535C57.7817 39.2134 57.6485 39.3466 57.4886 39.3466C57.2489 39.3466 57.1423 39.533 57.1423 39.6929C57.1423 39.7994 57.1956 39.906 57.2755 39.9859C57.3821 40.0925 57.5419 40.1458 57.7284 40.1458C59.6464 40.1458 61.3247 38.2277 61.7243 35.5637C61.7243 35.4838 61.7776 35.4305 61.8309 35.3773L61.8309 35.3772C61.8842 35.3506 61.9641 35.324 62.0174 35.324H62.0707C62.1506 35.324 62.2039 35.3772 62.2571 35.4305C62.3104 35.4838 62.3104 35.5637 62.3104 35.6436C61.8842 38.6006 59.9395 40.7318 57.7284 40.7318C57.2755 40.7318 57.0091 40.5453 56.8493 40.4122C56.6628 40.2257 56.5562 39.9593 56.5562 39.6929ZM10.3096 37.908C10.3362 37.8814 10.3895 37.8814 10.4428 37.8814C10.4694 37.8814 10.4961 37.8814 10.5493 37.908C11.535 38.201 12.9736 38.7338 14.199 39.613C14.2523 39.6396 14.3056 39.7195 14.3056 39.7994C14.3056 39.8793 14.3056 39.9593 14.2523 40.0126C14.199 40.0658 14.1191 40.1191 14.0125 40.1191C13.9592 40.1191 13.906 40.0925 13.8527 40.0658C12.7072 39.24 11.3219 38.7338 10.3895 38.4674C10.2297 38.4142 10.1231 38.2543 10.1764 38.0945C10.1764 38.0146 10.2297 37.9347 10.3096 37.908ZM48.3245 35.4039C49.1504 34.7645 50.1627 34.4182 51.2549 34.4182H51.4414C51.5213 34.4448 51.6012 34.4715 51.6545 34.5248C51.7078 34.578 51.7344 34.658 51.7344 34.7379C51.7344 34.8178 51.6812 34.8977 51.6279 34.951C51.5746 34.9776 51.5213 35.0043 51.468 35.0043H51.4414H51.2549C50.2692 35.0043 49.3901 35.2973 48.6709 35.8567C47.845 36.4961 47.6053 37.4019 47.4188 38.1211C47.3389 38.4408 47.259 38.7072 47.1524 38.9203C47.0991 38.9736 47.0458 39.0269 46.9659 39.0535C46.9393 39.0802 46.9126 39.0802 46.886 39.0802C46.8327 39.0802 46.8061 39.0802 46.7528 39.0535C46.6995 39.0002 46.6462 38.947 46.6196 38.867C46.593 38.8138 46.6196 38.7339 46.6462 38.654L46.6462 38.6539C46.7113 38.5455 46.7587 38.3665 46.8172 38.1456L46.843 38.0486L46.8594 37.9879L46.8752 37.9303C47.0861 37.1643 47.3632 36.1574 48.3245 35.4039ZM8.39156 37.5084C8.44483 37.4818 8.4981 37.4551 8.55136 37.4551C8.578 37.4551 8.57801 37.4551 8.57801 37.4285C8.62046 37.437 8.67373 37.4455 8.73783 37.4557C8.87485 37.4775 9.06133 37.5072 9.29728 37.5617C9.3772 37.5883 9.43048 37.6416 9.48376 37.6949C9.53704 37.7482 9.56367 37.8281 9.53703 37.908C9.5104 38.0412 9.3772 38.1478 9.244 38.1478H9.19072C9.05958 38.1332 8.92844 38.1107 8.80165 38.0889L8.80145 38.0888C8.69652 38.0708 8.59457 38.0533 8.49809 38.0412C8.41817 38.0412 8.36489 37.9879 8.31161 37.9346C8.25833 37.8814 8.25833 37.8015 8.25833 37.7215C8.28497 37.6416 8.33825 37.5617 8.39153 37.5084L8.39156 37.5084ZM19.154 37.0555C19.3671 37.0023 19.6069 36.949 19.82 36.9223C19.8466 36.9223 19.8466 36.9223 19.8466 36.8957C20.0065 36.8957 20.113 36.9756 20.1397 37.1355C20.1663 37.2953 20.0597 37.4551 19.8999 37.4818C19.6868 37.5084 19.5003 37.5617 19.3138 37.615H19.2339C19.1007 37.615 18.9675 37.535 18.9409 37.4019C18.9142 37.3486 18.9409 37.2687 18.9675 37.1887C19.0208 37.1355 19.0741 37.0822 19.154 37.0555ZM64.3617 35.0576C64.415 35.0309 64.4682 35.0043 64.5215 35.0043H64.6014C64.6814 35.0309 64.7346 35.0842 64.7879 35.1375C64.8412 35.1908 64.8678 35.2707 64.8412 35.3506C64.8122 35.4519 64.7912 35.5612 64.7694 35.674L64.7693 35.6743C64.7511 35.7689 64.7323 35.8661 64.708 35.9633C64.6814 36.0965 64.5482 36.2031 64.415 36.2031H64.3617C64.2818 36.1764 64.2285 36.1231 64.1752 36.0699C64.1219 36.0166 64.0953 35.9367 64.1219 35.8567C64.1352 35.7502 64.1552 35.6503 64.1752 35.5504C64.1952 35.4505 64.2152 35.3506 64.2285 35.244C64.2551 35.1641 64.3084 35.1108 64.3617 35.0576ZM52.8533 34.7112C52.8799 34.6846 52.9332 34.6846 52.9865 34.6846C52.9967 34.6846 53.0069 34.6885 53.0155 34.6918C53.0296 34.6972 53.0398 34.7011 53.0398 34.6846C53.2795 34.7379 53.4927 34.8178 53.7058 34.9244C53.7857 34.951 53.839 35.0043 53.8656 35.0842C53.8923 35.1641 53.8923 35.244 53.8656 35.324C53.839 35.4039 53.7857 35.4572 53.7058 35.4838C53.6791 35.5104 53.6259 35.5104 53.5992 35.5104C53.5726 35.5104 53.5193 35.5104 53.4927 35.4838C53.2795 35.3772 53.0664 35.2973 52.8799 35.244C52.8267 35.2174 52.7467 35.1641 52.7201 35.0842C52.6668 35.0309 52.6668 34.951 52.6935 34.8711C52.7201 34.8178 52.7734 34.7379 52.8533 34.7112ZM55.4906 33.7789C55.5972 33.3526 55.9169 33.0862 56.3165 33.0862H56.4763C56.5562 33.1129 56.6095 33.1661 56.6628 33.2194L56.6628 33.2194C56.7161 33.2727 56.7427 33.3526 56.7161 33.4325C56.6894 33.5124 56.6362 33.5657 56.5829 33.619C56.5296 33.6456 56.4763 33.6723 56.423 33.6723H56.3698H56.3165C56.1566 33.6723 56.0767 33.8055 56.0501 33.912C55.9968 34.1518 56.1034 34.4981 56.6362 34.658C56.6894 34.6846 56.7694 34.6846 56.8493 34.6846C57.1423 34.6846 57.4087 34.5514 57.5952 34.4182C58.4477 33.8055 59.4067 32.2604 59.4866 30.2624C59.4866 30.1825 59.5399 30.1026 59.5932 30.0493C59.6464 29.996 59.7264 29.9694 59.7796 29.9694H59.8063C59.8862 29.996 59.9661 30.0226 60.0194 30.0759C60.0727 30.1292 60.0993 30.2091 60.0993 30.289C59.9928 32.5268 58.9272 34.2051 57.9415 34.8977C57.5952 35.1375 57.2222 35.2707 56.8759 35.2707H56.8759C56.7427 35.2707 56.6095 35.2707 56.4763 35.2174C55.6238 34.951 55.3574 34.285 55.4906 33.7789ZM16.8363 34.1252C16.863 33.9653 16.9962 33.8588 17.156 33.8588C17.2359 33.8588 17.3425 33.8588 17.4224 33.8854C18.7011 33.8854 20.5444 33.0016 22.3632 32.1296L22.5905 32.0206L22.6438 31.994C22.797 31.9219 22.951 31.849 23.1052 31.776L23.1064 31.7755C23.8635 31.4172 24.6265 31.0561 25.3344 30.7685C25.3611 30.7419 25.4143 30.7419 25.441 30.7419C25.5475 30.7419 25.6541 30.8218 25.7074 30.9284C25.7607 31.0616 25.7074 31.2481 25.5475 31.3013C24.9059 31.562 24.2341 31.8831 23.5547 32.2077L23.5547 32.2077L23.5544 32.2078L23.5541 32.208L23.5539 32.2081L23.5525 32.2087L23.5515 32.2092L23.551 32.2094C23.3291 32.3155 23.1063 32.4219 22.8836 32.5268L22.8778 32.5296C20.9082 33.4877 18.8861 34.4715 17.3958 34.4715C17.3387 34.4715 17.2816 34.4638 17.2286 34.4567C17.1826 34.4506 17.1398 34.4448 17.1027 34.4448C16.9429 34.4448 16.8097 34.285 16.8363 34.1252ZM40.5457 30.8485C40.599 30.7419 40.7056 30.662 40.8388 30.662C40.8654 30.662 40.8921 30.6886 40.9187 30.7153C41.4248 30.9018 41.9576 31.1149 42.4904 31.328L42.8181 31.4572L42.8182 31.4572L42.8183 31.4573C44.3554 32.0641 46.0177 32.7204 47.2856 32.8198C47.4454 32.8465 47.552 32.9796 47.552 33.1395C47.552 33.2727 47.4188 33.4059 47.259 33.4059C45.7819 33.274 43.9653 32.5415 42.3264 31.8806L42.3263 31.8805L42.2773 31.8608L42.1974 31.8341C41.665 31.6212 41.1858 31.4348 40.7066 31.2485L40.7056 31.2481C40.6256 31.2214 40.5724 31.1681 40.5457 31.0882C40.5191 31.0083 40.5191 30.9284 40.5457 30.8485ZM65.4006 23.8156C65.4273 23.7623 65.5072 23.709 65.5871 23.709C65.7736 23.709 65.9068 23.8156 65.9334 23.9221C66.1466 26.1865 66.04 28.6374 65.9334 30.6087V30.6354C65.9208 30.8875 65.9142 31.1336 65.9078 31.3681V31.3682V31.3683V31.3684V31.3685V31.3686V31.3687V31.3688V31.369V31.3692V31.3694V31.3696V31.3698V31.37C65.9008 31.6305 65.8942 31.8765 65.8801 32.1005C65.8801 32.287 65.9068 32.5534 66.1466 32.66C66.1998 32.6866 66.2798 32.7133 66.3597 32.7133C66.5462 32.7133 66.7326 32.66 66.8392 32.5268C67.0523 32.3137 66.9724 32.0206 66.8925 31.8341C66.8392 31.6743 66.8925 31.5145 67.0523 31.4345C67.1056 31.4079 67.1322 31.4079 67.1855 31.4079C67.2921 31.4079 67.3986 31.4878 67.4519 31.5944C67.665 32.1005 67.6117 32.6067 67.2654 32.953C67.0257 33.1928 66.706 33.326 66.3597 33.326C66.1998 33.326 66.04 33.2993 65.9068 33.2461C65.4806 33.0596 65.2408 32.66 65.2674 32.1272C65.2674 31.744 65.289 31.2963 65.3127 30.8034V30.8033V30.8032V30.8031V30.803V30.8029V30.8028L65.3207 30.6354C65.3277 30.4652 65.3351 30.2913 65.3427 30.1143L65.3429 30.1081C65.4215 28.2629 65.515 26.0684 65.3207 24.0287C65.3207 23.9488 65.3474 23.8688 65.4006 23.8156ZM61.6711 31.0349C61.6977 31.0083 61.751 31.0083 61.7776 31.0083H61.8842C62.044 31.0882 62.1239 31.2481 62.044 31.4079C61.8575 31.8341 61.9907 32.1005 62.0973 32.2337C62.2305 32.3936 62.3903 32.4735 62.5768 32.4735H62.6834C62.8965 32.4469 63.0563 32.2337 63.1363 31.9407C63.5092 30.4222 63.6691 26.9058 63.3494 24.082C63.3494 23.9221 63.4559 23.7889 63.6158 23.7623H63.6424C63.8022 23.7623 63.9088 23.8689 63.9355 24.0287C64.2551 26.9324 64.0686 30.5288 63.6957 32.1005C63.5891 32.6333 63.2428 32.9797 62.8166 33.0862C62.7367 33.1129 62.6567 33.1129 62.5768 33.1129C62.2305 33.1129 61.8842 32.953 61.6444 32.66C61.3248 32.2604 61.2715 31.7276 61.5112 31.1948C61.5379 31.1149 61.5912 31.0616 61.6711 31.0349ZM27.2525 30.1558H27.3058H27.3058C27.3857 30.1558 27.439 30.1558 27.4656 30.2091C27.5455 30.2358 27.5988 30.3157 27.5988 30.3956C27.5988 30.4755 27.5988 30.5554 27.5455 30.6087C27.5189 30.662 27.439 30.7153 27.359 30.7153C27.1726 30.7419 26.9861 30.7952 26.7996 30.8485L26.7996 30.8485H26.7197C26.5865 30.8485 26.4533 30.7685 26.4266 30.6354C26.4 30.5821 26.4266 30.5022 26.4533 30.4222C26.5066 30.369 26.5599 30.3157 26.6398 30.289L26.6398 30.289C26.8529 30.2358 27.066 30.1825 27.2525 30.1558ZM38.7342 30.4222C38.7609 30.2624 38.8674 30.1558 39.0273 30.1558C39.0273 30.1558 39.0539 30.1558 39.0539 30.1825C39.2194 30.1825 39.3849 30.2244 39.569 30.2711L39.64 30.289C39.7199 30.3157 39.7732 30.3423 39.8265 30.4222C39.8531 30.4755 39.8797 30.5554 39.8531 30.6354C39.7998 30.7685 39.6933 30.8485 39.5601 30.8485H39.4801C39.34 30.8017 39.1793 30.7755 39.0341 30.7518L38.974 30.7419C38.8941 30.7419 38.8408 30.6886 38.7875 30.6354C38.7342 30.5821 38.7342 30.5022 38.7342 30.4222ZM59.0071 25.7336C59.0071 25.6004 59.1403 25.4672 59.3001 25.4672C59.4866 25.4939 59.6198 25.6271 59.5399 25.7603C59.4866 26.2132 59.5932 26.5328 59.8596 26.7193C59.9928 26.7992 60.126 26.8525 60.2858 26.8525C60.3924 26.8525 60.5256 26.8259 60.6321 26.7726C60.9784 26.6127 61.1916 26.2398 61.2182 25.7603C61.2448 25.414 61.4047 22.1639 58.9805 20.3524C58.9272 20.3258 58.8739 20.2458 58.8739 20.1659C58.8473 20.086 58.8739 20.0061 58.9272 19.9528C58.9804 19.8995 59.0337 19.8462 59.1137 19.8462H59.1669C59.2469 19.8462 59.3001 19.8729 59.3534 19.8995C62.044 21.9241 61.8576 25.4406 61.8309 25.8402C61.7776 26.5328 61.4579 27.0923 60.9252 27.332C60.7387 27.4119 60.5522 27.4652 60.3391 27.4652C60.0727 27.4652 59.8063 27.3853 59.5932 27.2255C59.1669 26.9324 58.9538 26.373 59.0071 25.7336ZM56.3698 22.6967C56.423 22.6168 56.503 22.5901 56.5829 22.5901C56.6628 22.5901 56.7161 22.5901 56.7694 22.6434C56.8226 22.6967 56.8759 22.7766 56.8759 22.8565C56.8759 23.043 56.9292 23.2828 57.1423 23.3627C57.1689 23.3893 57.1956 23.3893 57.2489 23.3893C57.4087 23.3893 57.5952 23.2828 57.7017 23.1496C57.8349 22.9365 57.8616 22.6967 57.7017 22.4303C56.9026 21.0184 53.5992 19.5532 51.2816 19.2602C51.1217 19.2602 50.9885 19.1003 51.0152 18.9405C51.0152 18.8606 51.0684 18.8073 51.1217 18.754C51.175 18.7274 51.2549 18.7007 51.3082 18.7007H51.3615C53.8656 19.0204 57.3288 20.5655 58.2345 22.1639C58.5276 22.6434 58.5009 23.1496 58.1813 23.5492C57.9681 23.8422 57.6218 24.002 57.2755 24.002C57.1872 24.002 57.1172 23.9838 57.0352 23.9623C57.0183 23.9579 57.0008 23.9533 56.9825 23.9488C56.5829 23.8156 56.3165 23.4426 56.2898 22.9098C56.2898 22.8299 56.3165 22.75 56.3698 22.6967ZM63.0563 21.3647C63.083 21.3381 63.1363 21.3381 63.1629 21.3381C63.1794 21.3381 63.206 21.3482 63.2428 21.3623C63.2656 21.371 63.2922 21.3812 63.3227 21.3914C63.4027 21.418 63.4559 21.4713 63.4826 21.5512C63.5359 21.711 63.5891 21.8975 63.6424 22.1106C63.6691 22.1639 63.6691 22.2438 63.6158 22.3237C63.5625 22.377 63.5092 22.4303 63.4293 22.4569H63.3494C63.2162 22.4569 63.083 22.377 63.0563 22.2438C63.0031 22.0573 62.9498 21.8975 62.8965 21.7377C62.8699 21.6844 62.8699 21.6045 62.8965 21.5246C62.9231 21.4446 62.9764 21.3914 63.0563 21.3647ZM65.1076 21.1782H65.1875C65.3207 21.1782 65.4539 21.2582 65.4806 21.3914C65.5072 21.4846 65.5272 21.5778 65.5471 21.6711C65.5671 21.7643 65.5871 21.8575 65.6138 21.9508C65.6138 22.0307 65.6138 22.084 65.5605 22.1639C65.5072 22.2438 65.4539 22.2705 65.374 22.2971H65.3207C65.1875 22.2971 65.0543 22.1905 65.0277 22.0574C65.0037 21.9734 64.9851 21.8894 64.9671 21.8079C64.945 21.7084 64.9238 21.6124 64.8945 21.5246C64.8678 21.4713 64.8945 21.3913 64.9211 21.3114C64.9744 21.2582 65.0277 21.2049 65.1076 21.1782ZM53.0664 16.5429C53.1197 16.4097 53.2263 16.3298 53.3595 16.3298H53.4927C54.7447 16.7028 55.5173 16.9692 56.2632 17.2355L56.7427 17.3954C56.7649 17.4009 56.7859 17.4065 56.806 17.4118L56.8062 17.4118C56.8826 17.432 56.9459 17.4487 57.0091 17.4487C57.1423 17.4487 57.2489 17.3954 57.3288 17.3155C57.462 17.2089 57.5153 17.0491 57.462 16.8892C57.4087 16.6761 57.1689 16.5163 56.8493 16.4364C56.7694 16.4097 56.7161 16.3564 56.6628 16.3032C56.6095 16.2499 56.5829 16.17 56.6095 16.09C56.6362 16.0101 56.6894 15.9568 56.7427 15.9036C56.796 15.8769 56.8493 15.8503 56.9026 15.8503H56.9558C57.4886 15.9568 57.8882 16.2765 57.9948 16.7028C58.1013 17.0757 57.9681 17.4487 57.7017 17.7151C57.4886 17.9015 57.2489 18.0081 56.9558 18.0081C56.796 18.0081 56.6628 17.9815 56.503 17.9282L56.0234 17.7683C55.8001 17.6966 55.5768 17.6224 55.3399 17.5437L55.3383 17.5432L55.3372 17.5428L55.3361 17.5424L55.3345 17.5419L55.3338 17.5417C54.7809 17.358 54.1536 17.1496 53.2795 16.8892C53.1996 16.8626 53.1197 16.836 53.0931 16.756C53.0398 16.7028 53.0398 16.6228 53.0664 16.5429ZM48.6575 17.3288C48.7241 17.3221 48.7907 17.3155 48.8573 17.3155V17.2888C48.9373 17.2888 48.9905 17.3155 49.0438 17.3687C49.0971 17.422 49.1504 17.5019 49.1504 17.5819C49.177 17.7417 49.0438 17.9015 48.884 17.9015C48.7508 17.9282 48.6176 17.9282 48.4578 17.9282H48.4577C48.2979 17.9282 48.1647 17.795 48.1647 17.6351C48.1647 17.4753 48.2979 17.3421 48.4577 17.3421C48.5243 17.3421 48.5909 17.3354 48.6575 17.3288ZM51.9209 12.8666C51.9742 12.84 52.0275 12.8133 52.0808 12.8133C52.1607 12.8133 52.2406 12.84 52.3205 12.9199C53.3595 13.9322 54.7714 14.5183 56.13 14.5183C56.6628 14.5183 57.1423 14.4384 57.5419 14.2519C57.5685 14.2253 57.5952 14.2253 57.6485 14.2253C57.6618 14.2253 57.6818 14.2319 57.7017 14.2386C57.7217 14.2452 57.7417 14.2519 57.755 14.2519C57.8349 14.2785 57.8882 14.3318 57.9149 14.4117C57.9415 14.4917 57.9415 14.5716 57.9149 14.6515C57.8882 14.7314 57.8349 14.7847 57.755 14.8113C57.2755 15.0244 56.7427 15.131 56.13 15.131C54.8779 15.131 53.5726 14.6781 52.507 13.8789C52.5869 15.1843 52.0541 16.9159 50.3225 17.6351C50.2959 17.6618 50.2426 17.6618 50.216 17.6618C50.0828 17.6618 49.9762 17.5819 49.9229 17.4753C49.8697 17.3155 49.9229 17.129 50.0828 17.0757C51.8144 16.3564 52.134 14.3851 51.7877 13.2129C51.7611 13.0797 51.8144 12.9465 51.9209 12.8666ZM60.1792 13.506C60.2059 13.4527 60.2858 13.3994 60.3657 13.3994L60.419 13.3728C60.4989 13.3728 60.5522 13.3728 60.6055 13.4261L61.0051 13.7457L61.0412 13.7756C61.6377 14.2685 62.1334 14.6781 62.6035 14.6781C62.6917 14.6781 62.7617 14.6598 62.8437 14.6384L62.844 14.6384L62.8647 14.633L62.8965 14.6249C62.9231 14.5982 62.9764 14.5982 63.0031 14.5982C63.1096 14.5982 63.2162 14.6781 63.2695 14.7847C63.3227 14.9445 63.2695 15.131 63.1096 15.1843C62.9231 15.2642 62.7633 15.2908 62.5768 15.2908C61.8842 15.2908 61.2715 14.7847 60.6055 14.2253L60.5788 14.1986C60.5256 14.1453 60.4656 14.0987 60.4057 14.0521C60.3457 14.0055 60.2858 13.9589 60.2325 13.9056C60.1792 13.8789 60.126 13.799 60.126 13.7191C60.0993 13.6392 60.126 13.5593 60.1792 13.506ZM47.7118 12.8666C48.0581 12.5203 48.5377 12.3338 49.0971 12.3338C49.1581 12.3338 49.2135 12.3394 49.2736 12.3455C49.3447 12.3526 49.4223 12.3605 49.5233 12.3605C49.6033 12.3605 49.6565 12.4137 49.7098 12.467C49.7631 12.5203 49.7631 12.6002 49.7631 12.6801V12.6801C49.7365 12.84 49.6299 12.9465 49.4701 12.9465H49.4168C49.3369 12.9199 49.2303 12.9199 49.1504 12.9199C48.7508 12.9199 48.4311 13.0531 48.1913 13.2929C48.1381 13.3461 48.0848 13.3994 48.0581 13.4527C48.2446 13.6392 48.5377 13.8257 48.6975 13.8789C48.7774 13.9056 48.8307 13.9589 48.8573 14.0388C48.884 14.0921 48.884 14.172 48.8573 14.2519C48.8307 14.3318 48.7774 14.3851 48.6975 14.4117C48.6442 14.4384 48.6176 14.4384 48.5643 14.4384C48.5331 14.4384 48.511 14.4292 48.4927 14.4217C48.4798 14.4163 48.4688 14.4117 48.4577 14.4117L48.4577 14.4117L48.4576 14.4117C48.2978 14.3318 48.0315 14.1986 47.845 14.0388V14.0389C47.845 14.1454 47.845 14.2786 47.8717 14.4117C47.8717 14.4917 47.8717 14.5716 47.8184 14.6249C47.7651 14.7048 47.7118 14.758 47.6319 14.758H47.5786C47.5254 14.758 47.4721 14.7314 47.4188 14.7048C47.3389 14.6781 47.3122 14.5982 47.2856 14.5183C47.1524 13.8523 47.3122 13.2662 47.7118 12.8666ZM2.98365 78.0275C3.09021 78.5337 3.51645 79.9722 4.23572 79.9722V79.9189H8.79112C8.07185 79.0132 7.61897 78.4005 7.59233 77.548L7.51241 77.4947C6.47346 76.9619 5.80747 76.6156 5.46115 75.3102C5.11484 74.0049 4.36892 66.7056 5.19476 64.4146C5.47226 63.683 6.01257 62.9275 6.63469 62.0576L6.73986 61.9104L6.81747 61.8022C8.0834 60.0363 9.64789 57.8539 9.85672 54.9042C9.61696 54.4513 9.32392 53.9718 9.00424 53.4656C8.4448 55.5702 7.77881 57.1686 6.8997 58.5538C6.84642 58.6338 6.79314 58.6604 6.71322 58.687H6.65994C6.60666 58.687 6.55338 58.6604 6.5001 58.6338C6.3669 58.5538 6.34026 58.3674 6.42018 58.2342C7.35257 56.7956 8.01857 55.1173 8.60464 52.8263C8.01857 51.9205 7.32593 50.9349 6.47346 49.816C3.78284 46.193 2.87709 42.3835 2.58406 40.3589C2.15782 42.1437 2.18446 43.902 2.2111 45.2073V45.2872V46.0065C2.2111 46.9655 2.45086 48.6172 2.66398 50.0557L2.68635 50.2123C2.86306 51.4482 3.01029 52.478 3.01029 53.066C3.01029 53.6407 2.72907 54.3091 2.40841 55.0713L2.3443 55.2239C1.91806 56.1829 1.46519 57.2751 1.46519 58.3141C1.46519 59.0198 1.53529 61.2562 1.6136 63.7542C1.65353 65.028 1.6956 66.3698 1.73159 67.6114V67.7712L1.78435 69.3982C1.87069 72.0532 1.9447 74.329 1.9447 74.884C1.9447 75.177 1.91806 75.5234 1.89142 75.843C1.83814 76.6156 1.78486 77.5746 2.0779 77.8144C2.13118 77.841 2.2111 77.8677 2.29102 77.8677C2.37094 77.8677 2.4775 77.8677 2.61069 77.8144C2.63733 77.7878 2.66397 77.7877 2.69061 77.7877C2.74389 77.7877 2.79718 77.7878 2.85045 77.8144C2.93037 77.8677 2.95701 77.9476 2.98365 78.0275ZM5.38123 59.6727C5.43451 59.5928 5.51443 59.5661 5.59435 59.5661C5.67427 59.5661 5.75419 59.5928 5.80747 59.6461C5.86075 59.6993 5.91403 59.7793 5.91403 59.8592C5.91403 59.9391 5.88739 60.019 5.83411 60.0723C5.75418 60.1522 5.68092 60.2321 5.60766 60.3121L5.60756 60.3122C5.53434 60.3921 5.46111 60.4719 5.38123 60.5518C5.32795 60.6051 5.24803 60.6317 5.16811 60.6317C5.08819 60.6317 5.00827 60.6051 4.955 60.5518C4.90172 60.4985 4.87507 60.4186 4.87507 60.3387C4.87507 60.2588 4.90172 60.1789 4.955 60.1256C5.08819 59.9924 5.24803 59.8325 5.38123 59.6727ZM66.4929 61.0846C65.4539 62.8428 65.7203 64.0683 66.5195 65.6134C67.2121 65.0539 68.6507 64.681 70.036 64.3613L70.5155 64.3347C71.3946 64.1215 71.9007 63.6687 72.6733 62.976L72.7532 62.8961L72.7533 62.896L72.7537 62.8957L72.7538 62.8955C72.8603 62.789 72.9932 62.6562 73.1262 62.5498C73.5258 62.2035 74.0053 61.2444 74.5114 60.2055C75.284 58.6338 76.2697 56.6624 77.4951 55.73C77.5217 55.3038 77.6017 53.8652 76.8291 52.773C75.2424 52.2706 73.0782 50.2981 70.988 48.393L70.9417 48.3508L70.7225 48.1504C69.2583 46.8115 67.8758 45.5474 66.7593 44.8876C66.4929 45.6069 66.1998 46.2729 65.8801 46.8856C66.5728 47.4717 67.6384 48.1377 68.9437 48.8303C69.1036 48.9102 69.1568 49.0967 69.0769 49.2299C69.0236 49.3365 68.9171 49.3897 68.8105 49.3897C68.7572 49.3897 68.7306 49.3898 68.6773 49.3631C67.372 48.6705 66.3597 48.0311 65.6404 47.445C64.9478 48.8037 64.2019 49.9226 63.4027 50.8283C65.9707 52.9727 68.144 53.1702 69.8966 53.3295L69.9294 53.3324C70.995 53.4124 71.9274 53.4923 72.62 54.0784C73.0196 53.5722 73.5258 53.3058 74.1385 53.2525H74.1651C74.245 53.2525 74.2983 53.2792 74.3516 53.3324C74.4049 53.3857 74.4582 53.4656 74.4582 53.5456C74.4582 53.6255 74.4315 53.7054 74.3782 53.7587C74.325 53.812 74.245 53.8652 74.1651 53.8652C72.4868 53.9984 72.1671 56.5292 72.0872 57.6214C72.0339 58.4206 71.6077 59.1133 70.9151 59.4862C70.5954 59.6461 70.2491 59.7526 69.9028 59.7526C69.663 59.7526 69.4499 59.6993 69.2634 59.5928C69.1568 59.5129 69.0236 59.4862 68.9437 59.4862C68.9171 59.4862 68.8638 59.4862 68.8372 59.5129C68.7572 59.5661 68.6773 59.8325 68.8904 60.4453C68.9171 60.5252 68.8904 60.6317 68.8372 60.7117C68.7839 60.7649 68.704 60.8182 68.5974 60.8182H68.331C67.8781 60.8182 67.0257 60.8449 66.4929 61.0846ZM69.8228 49.5229C69.8761 49.443 69.9827 49.3631 70.0892 49.3631C70.0948 49.3631 70.1014 49.3643 70.1092 49.3656C70.1391 49.3707 70.1857 49.3787 70.2491 49.3365C70.3839 49.4135 70.5326 49.4766 70.6248 49.5157C70.6601 49.5307 70.6872 49.5422 70.702 49.5496C70.8618 49.6295 70.9151 49.7893 70.8618 49.9492C70.8085 50.0557 70.702 50.1357 70.5688 50.1357C70.5421 50.1357 70.4888 50.1357 70.4622 50.109L70.4526 50.1045L70.44 50.0989C70.4299 50.0945 70.4179 50.0896 70.4042 50.084L70.3823 50.0751C70.3 50.0418 70.1668 49.988 69.9827 49.8959C69.9028 49.8693 69.8495 49.816 69.8228 49.7361C69.7962 49.6828 69.7962 49.6029 69.8228 49.5229ZM0.0399593 36.7153C0.0811195 36.7231 0.147718 36.7359 0.239756 36.7359C0.799191 36.7359 1.97134 36.4695 3.17013 36.0965C3.56973 35.0842 4.12916 33.8055 4.84844 32.3669C2.39758 33.246 1.54511 33.8055 0.985671 34.3649C0.372956 34.9776 0.0799193 36.0432 0 36.7092C0.00822101 36.7092 0.0215159 36.7118 0.0398847 36.7153L0.0399593 36.7153ZM67.2654 11.4014C67.2654 13.799 65.9601 15.7437 63.6158 16.8892C66.333 16.17 67.9314 14.5716 68.4909 12.0408L68.0913 11.9609C68.0113 11.9609 67.9581 11.9076 67.9048 11.8543C67.8515 11.801 67.8515 11.7211 67.8515 11.6412C67.8781 11.5613 67.9314 11.508 67.9847 11.4547C68.038 11.4281 68.0913 11.4014 68.1445 11.4014H68.1978L68.5974 11.4814V11.4281C68.6241 11.0285 68.624 10.549 68.5708 10.0428L68.0913 10.0694H68.0646C67.9847 10.0694 67.9314 10.0428 67.8781 9.98953C67.8249 9.93625 67.7716 9.85633 67.7716 9.77641C67.7716 9.69649 67.7982 9.61657 67.8515 9.56329C67.9048 9.51001 67.9847 9.45673 68.0646 9.45673L68.5175 9.43009C68.4109 8.84402 68.2511 8.28458 68.038 7.75179L67.2654 8.23131C67.2121 8.25795 67.1589 8.28458 67.1056 8.28458C66.999 8.28458 66.8925 8.23131 66.8392 8.15139C66.7326 8.01819 66.7859 7.83171 66.9191 7.75179L67.7716 7.21899C67.4519 6.57964 67.0789 6.0202 66.6527 5.54069C66.6127 5.48741 66.5661 5.44079 66.5195 5.39417C66.4729 5.34755 66.4263 5.30093 66.3863 5.24765L65.6138 6.52636L65.6137 6.5264C65.5604 6.57967 65.5072 6.63292 65.4273 6.65956H65.3474C65.2941 6.65956 65.2408 6.63292 65.1875 6.60628C65.1076 6.553 65.081 6.49972 65.0543 6.4198C65.0277 6.36652 65.0277 6.2866 65.081 6.20668L65.9068 4.82141C65.2674 4.28862 64.5215 3.88902 63.6957 3.62262L63.4027 5.78045C63.4027 5.86037 63.3494 5.91365 63.2961 5.96692C63.2428 5.99356 63.1629 6.0202 63.1096 6.0202H63.0563C62.9764 6.0202 62.9231 5.96693 62.8699 5.91365C62.8166 5.86037 62.8166 5.78045 62.8166 5.70053L63.1096 3.46278C62.5235 3.32959 61.9108 3.24967 61.2715 3.24967H60.792L61.2448 5.70053C61.2448 5.78045 61.2448 5.86037 61.1916 5.91365C61.1383 5.99357 61.085 6.02021 61.0051 6.04684H60.9518C60.8186 6.04684 60.6854 5.94028 60.6588 5.80708L60.2059 3.30295C59.2735 3.43615 58.3944 3.75582 57.6485 4.26198L58.9538 6.47308C58.9804 6.52636 59.0071 6.60628 58.9805 6.6862C58.9538 6.76612 58.9272 6.8194 58.8473 6.87268C58.8206 6.87268 58.794 6.87934 58.7673 6.886C58.7407 6.89266 58.7141 6.89932 58.6874 6.89932C58.5809 6.89932 58.4743 6.84604 58.421 6.76612L57.1423 4.60829C56.3431 5.24765 55.6771 6.10012 55.171 7.13907L57.169 8.04483C57.2489 8.07147 57.3021 8.12474 57.3288 8.20466C57.3554 8.25794 57.3554 8.33786 57.3288 8.41778C57.3021 8.4977 57.2489 8.55098 57.169 8.57762C57.1423 8.60426 57.089 8.60426 57.0624 8.60426C57.0357 8.60426 56.9825 8.60426 56.9558 8.57762L54.9312 7.67187C54.5849 8.52434 54.3451 9.51002 54.2386 10.3092C54.4517 10.3891 54.6648 10.4424 54.8513 10.4424C55.1304 10.4424 55.3688 10.3612 55.6376 10.2697C55.6767 10.2564 55.7164 10.2428 55.757 10.2293C56.13 10.0961 56.5829 9.93625 57.1423 9.93625C57.2755 9.93625 57.4087 9.93625 57.5419 9.96289C58.128 7.96491 60.0727 6.63292 62.3903 6.63292C65.2941 6.63292 67.2654 9.11042 67.2654 11.4014ZM49.1237 1.38488C48.0848 2.92999 48.0848 5.59397 49.0971 8.15139C49.3635 8.04483 49.6299 7.93827 49.9229 7.88499C49.1237 5.40749 49.2037 2.74351 50.0828 1.67792C50.2692 1.4648 50.509 1.27832 50.802 1.1984C50.8287 1.17176 50.8553 1.17177 50.882 1.17177C50.9352 1.17177 50.9619 1.17176 51.0152 1.1984C51.0684 1.25168 51.1217 1.30497 51.1484 1.38488C51.175 1.43816 51.1484 1.51808 51.1217 1.598C51.0684 1.65128 51.0152 1.70456 50.9352 1.7312C50.7488 1.78448 50.5889 1.89104 50.4824 2.02424C49.7365 2.92999 49.7365 5.40749 50.4557 7.69851C50.478 7.69295 50.499 7.68739 50.5192 7.68207C50.5956 7.66191 50.6589 7.64523 50.7221 7.64523C51.3082 5.06117 52.8533 2.82343 55.0644 1.3316C54.6115 0.958645 53.4127 0.132812 51.3881 0.132812C50.4557 0.132812 49.6565 0.559052 49.1237 1.38488ZM52.0541 1.22504C52.1074 1.19841 52.1607 1.17177 52.214 1.17177C52.2406 1.17177 52.2672 1.17176 52.2672 1.1984C52.3588 1.22893 52.4426 1.25557 52.5142 1.27832C52.63 1.31514 52.7138 1.34178 52.7467 1.35824C52.8267 1.38488 52.8799 1.43816 52.9066 1.51808C52.9332 1.57136 52.9332 1.65128 52.9066 1.7312C52.8799 1.81112 52.8267 1.8644 52.7467 1.89104C52.7201 1.91768 52.6668 1.91768 52.6402 1.91768C52.6136 1.91768 52.5603 1.91768 52.5336 1.89104C52.4803 1.8644 52.3205 1.81112 52.134 1.75784C52.0541 1.7312 52.0008 1.70456 51.9476 1.62464C51.9209 1.57136 51.8943 1.49144 51.9209 1.41152C51.9476 1.3316 51.9742 1.27832 52.0541 1.22504ZM17.556 8.73795C17.556 8.84451 17.476 8.95107 17.3428 8.95107C16.4104 8.95107 15.6379 8.20515 15.6379 7.24612C15.6379 6.10061 16.5703 5.16822 17.7158 5.16822C19.5806 5.16822 20.806 7.13956 21.3122 11.0023C21.3122 11.029 21.3388 11.0556 21.3654 11.0556C21.3921 11.0556 21.4187 11.029 21.4187 11.0023C21.9249 7.13956 23.1503 5.16822 25.0151 5.16822C26.1606 5.16822 27.093 6.10061 27.093 7.24612C27.093 8.17851 26.3204 8.95107 25.388 8.95107C25.2815 8.95107 25.1749 8.87115 25.1749 8.73795C25.1749 8.63139 25.2549 8.52483 25.388 8.52483C26.0807 8.52483 26.6401 7.96539 26.6401 7.27276C26.6401 6.36701 25.9208 5.64774 25.0151 5.64774C21.9249 5.64774 21.5786 12.7339 21.5786 15.7708C21.5786 15.8774 21.4986 15.984 21.3654 15.984C21.2589 15.984 21.1523 15.904 21.1523 15.7708C21.1523 12.7339 20.806 5.64774 17.7158 5.64774C16.81 5.64774 16.0908 6.36701 16.0908 7.27276C16.0908 7.96539 16.6502 8.52483 17.3428 8.52483C17.4494 8.52483 17.556 8.60475 17.556 8.73795ZM73.7391 72.5402L74.1387 72.7C74.2453 72.7533 74.2986 72.8332 74.2719 72.9131C74.2719 73.0197 74.2186 73.0996 74.1387 73.1262L73.7391 73.2861C72.9666 73.6057 72.9666 73.6057 72.6469 74.3783L72.4871 74.7779C72.4338 74.8578 72.3539 74.9111 72.2739 74.9111C72.1674 74.9111 72.0875 74.8578 72.0608 74.7779L71.901 74.3783C71.6128 73.6186 71.5823 73.6059 70.8467 73.3017L70.8088 73.2861L70.4092 73.1262C70.3292 73.0729 70.276 72.993 70.276 72.9131C70.276 72.8065 70.3292 72.7266 70.4092 72.7L70.8088 72.5402C71.5685 72.252 71.5811 72.2214 71.8853 71.4859L71.901 71.4479L72.0608 71.0483C72.1141 70.9418 72.194 70.9151 72.2739 70.9151C72.3539 70.9151 72.4604 70.9684 72.4871 71.0483L72.6469 71.4479C72.9351 72.2076 72.9656 72.2203 73.7012 72.5245L73.7391 72.5402ZM72.3272 73.9787C72.5936 73.3393 72.7002 73.2328 73.3395 72.9664C73.3662 72.9664 73.3928 72.9397 73.3662 72.9131C73.3662 72.8865 73.3662 72.8598 73.3395 72.8598C72.7002 72.5934 72.5936 72.4869 72.3272 71.8475C72.3006 71.8209 72.2473 71.8209 72.2207 71.8475C71.9543 72.4869 71.8477 72.5934 71.2083 72.8598C71.1817 72.8865 71.1817 72.8865 71.1817 72.9131C71.1817 72.9397 71.1817 72.9664 71.2083 72.9664C71.8477 73.2328 71.9543 73.3393 72.2207 73.9787L72.2207 73.9787C72.2473 74.0053 72.2473 74.0053 72.2739 74.0053C72.3006 74.0053 72.3272 74.0053 72.3272 73.9787ZM72.2739 39.4802L72.6735 39.6401L72.7115 39.6558C73.4471 39.96 73.4776 39.9726 73.7658 40.7323L73.9256 41.1319C73.9522 41.2118 74.0322 41.2651 74.1387 41.2651C74.2186 41.2651 74.2986 41.2118 74.3518 41.1319L74.5117 40.7323L74.5274 40.6944C74.8316 39.9588 74.8442 39.9283 75.6039 39.6401L76.0035 39.4802C76.0834 39.4536 76.1367 39.3737 76.1367 39.2671C76.1367 39.1872 76.0834 39.1073 76.0035 39.054L75.6039 38.8942L75.566 38.8785C74.8304 38.5743 74.7998 38.5616 74.5117 37.8019L74.3518 37.4023C74.3252 37.3224 74.2186 37.2691 74.1387 37.2691C74.0588 37.2691 73.9789 37.2958 73.9256 37.4023L73.7658 37.8019L73.7501 37.8399C73.4459 38.5754 73.4332 38.606 72.6735 38.8942L72.2739 39.054C72.194 39.0807 72.1407 39.1606 72.1407 39.2671C72.1407 39.347 72.194 39.427 72.2739 39.4802ZM73.0731 39.2139C73.7125 38.9475 73.8191 38.8409 74.0854 38.2015V38.1483C74.0854 38.1216 74.1121 38.095 74.1387 38.095C74.1654 38.095 74.192 38.1216 74.192 38.1483V38.1749V38.2015C74.4584 38.8409 74.565 38.9475 75.2043 39.2139C75.2309 39.2139 75.231 39.2405 75.231 39.2671C75.231 39.2938 75.2309 39.2938 75.2043 39.3204C74.565 39.5868 74.4584 39.6934 74.192 40.3327C74.192 40.3594 74.1654 40.3594 74.1387 40.3594C74.1274 40.3594 74.1209 40.3594 74.1151 40.3573C74.1073 40.3546 74.1008 40.3481 74.0856 40.3329L74.0855 40.3328L74.0855 40.3327L74.0854 40.3327C73.8191 39.6934 73.7125 39.5868 73.0731 39.3204C73.0465 39.3204 73.0465 39.2938 73.0465 39.2671C73.0465 39.2405 73.0465 39.2139 73.0731 39.2139ZM29.1162 16.8903L29.1161 16.8902L29.116 16.8902C28.9898 16.8421 28.8539 16.7902 28.7179 16.7298C28.638 16.7031 28.5847 16.6232 28.5847 16.5167C28.5847 16.4101 28.638 16.3302 28.7179 16.3035C28.8539 16.2431 28.9899 16.1912 29.1162 16.1431L29.1163 16.143C29.2126 16.1063 29.3032 16.0717 29.3839 16.0371L29.4372 16.0105C30.929 15.4244 30.9557 15.3978 31.5417 13.906L31.5684 13.826C31.6007 13.7505 31.6331 13.6706 31.6673 13.5863L31.6673 13.5863L31.6673 13.5863L31.6673 13.5863C31.7174 13.4625 31.7714 13.3293 31.8348 13.1867C31.8881 13.1068 31.968 13.0535 32.0479 13.0535C32.1544 13.0535 32.2344 13.1068 32.261 13.1867C32.3109 13.3115 32.3609 13.4246 32.408 13.5315L32.4081 13.5316L32.4081 13.5317C32.4616 13.6529 32.5116 13.7661 32.554 13.8793V13.906C33.1401 15.3978 33.1668 15.4244 34.6586 16.0105L34.6852 16.0371L34.6855 16.0373C34.8986 16.1171 35.1116 16.197 35.3779 16.3035C35.4578 16.3568 35.5111 16.4367 35.5111 16.5167C35.5111 16.6232 35.4578 16.7031 35.3779 16.7298C35.267 16.7741 35.1607 16.8185 35.059 16.8609L35.0582 16.8613L35.0582 16.8613C34.9159 16.9207 34.7827 16.9763 34.6586 17.0228C33.1668 17.6089 33.1401 17.6355 32.554 19.1274C32.5075 19.2515 32.4519 19.3847 32.3925 19.5269L32.3925 19.527L32.3924 19.5273C32.3499 19.6291 32.3054 19.7355 32.261 19.8466C32.2077 19.9265 32.1278 19.9798 32.0479 19.9798C31.9413 19.9798 31.8614 19.9265 31.8348 19.8466C31.7714 19.704 31.7174 19.5708 31.6673 19.447L31.6672 19.4469L31.6671 19.4466L31.667 19.4464C31.633 19.3624 31.6007 19.2826 31.5684 19.2073L31.5417 19.1274C30.9557 17.6355 30.929 17.6089 29.4372 17.0228L29.3839 16.9962C29.3032 16.9616 29.2126 16.927 29.1162 16.8903ZM29.597 16.4367L29.5171 16.4634C29.5171 16.4767 29.5105 16.4834 29.5038 16.49C29.4971 16.4967 29.4905 16.5033 29.4905 16.5167C29.4905 16.5433 29.4905 16.5699 29.5171 16.5699L29.597 16.5966C31.2753 17.2626 31.302 17.3159 31.968 18.9675L31.9946 19.0474C31.9946 19.0741 32.0212 19.0741 32.0479 19.0741C32.0745 19.0741 32.1012 19.0741 32.1012 19.0474L32.1278 18.9675C32.7938 17.2892 32.8471 17.2626 34.4988 16.5966L34.5787 16.5699C34.6053 16.5699 34.6053 16.5433 34.6053 16.5167C34.6053 16.49 34.6053 16.4634 34.5787 16.4634L34.4988 16.4367C32.8204 15.7707 32.7938 15.7175 32.1278 14.0658L32.1012 13.9859C32.1012 13.9592 32.0745 13.9592 32.0479 13.9592C32.0212 13.9592 31.9946 13.9592 31.9946 13.9859L31.968 14.0658C31.302 15.7441 31.2487 15.7707 29.597 16.4367ZM36.2038 68.7572C35.8848 68.6243 35.6188 68.5179 35.3529 68.4115L35.3513 68.4109C33.5665 67.6916 33.5665 67.6916 32.8738 65.9334C32.8135 65.7977 32.7532 65.6449 32.6881 65.4799C32.6381 65.3534 32.5853 65.2197 32.5275 65.0809C32.5009 65.001 32.3943 64.9477 32.3144 64.9477C32.2345 64.9477 32.1546 64.9743 32.1013 65.0809C31.9681 65.4006 31.8615 65.667 31.755 65.9334C31.0357 67.7182 31.0357 67.7182 29.2775 68.4109L29.1443 68.4641C29.0201 68.5107 28.8869 68.5663 28.7447 68.6257C28.6428 68.6682 28.5362 68.7127 28.425 68.7572C28.3451 68.7838 28.2918 68.8637 28.2918 68.9703C28.2918 69.0502 28.3451 69.1301 28.425 69.1834C28.5838 69.2556 28.7347 69.3121 28.8778 69.3657L28.878 69.3658L28.8782 69.3659C28.9991 69.4111 29.1144 69.4543 29.2242 69.5031L29.2775 69.5297C31.0623 70.249 31.0623 70.249 31.755 72.0072L31.7816 72.0872C31.8615 72.3269 31.9681 72.5667 32.1013 72.8597C32.1279 72.9396 32.2078 72.9929 32.3144 72.9929C32.3943 72.9929 32.4742 72.9396 32.5275 72.8597C32.6607 72.5667 32.7673 72.2736 32.8472 72.0339V72.0072C33.5665 70.2224 33.5665 70.2224 35.3247 69.5031L35.4579 69.4498C35.5821 69.4033 35.7153 69.3477 35.8575 69.2883L35.8587 69.2878L35.8589 69.2877C35.9604 69.2454 36.0665 69.2011 36.1772 69.1568C36.2571 69.1301 36.3104 69.0502 36.3104 68.9437C36.337 68.8638 36.2837 68.7838 36.2038 68.7572ZM35.4313 68.9703C35.4313 68.9969 35.4046 68.9969 35.4046 68.9969L35.1915 69.0769C33.2734 69.8494 33.2201 69.9027 32.4476 71.8208L32.3677 72.0339C32.3677 72.0605 32.341 72.0605 32.3144 72.0605C32.2878 72.0605 32.2611 72.0605 32.2611 72.0339L32.2078 71.8208C31.4353 69.9027 31.382 69.8494 29.4639 69.0769L29.2508 68.9969C29.2242 68.9969 29.2242 68.9703 29.2242 68.9437C29.2242 68.917 29.2242 68.8904 29.2508 68.8904L29.4639 68.8105C31.382 68.0379 31.4353 67.9846 32.2078 66.0666L32.2878 65.8535C32.2878 65.8268 32.3144 65.8268 32.341 65.8268C32.3677 65.8268 32.3943 65.8268 32.3943 65.8535L32.4742 66.0666C33.2468 67.9846 33.3001 68.0379 35.2181 68.8105C35.4579 68.917 35.4579 68.917 35.4313 68.9703ZM46.0605 72.5934L46.5933 72.8065C46.6732 72.8331 46.7265 72.9131 46.6999 72.9663C46.6999 73.0729 46.6466 73.1528 46.5667 73.1795L46.0605 73.3926C45.0344 73.7872 45.0217 73.8181 44.6109 74.8198L44.5953 74.8578L44.3822 75.3906C44.3289 75.4705 44.249 75.5238 44.1691 75.5238C44.0625 75.5238 43.9826 75.4705 43.956 75.3906L43.7429 74.8844C43.3482 73.8583 43.3173 73.8456 42.3156 73.4348L42.2777 73.4192L41.7449 73.2061C41.6649 73.1528 41.6117 73.0729 41.6117 72.993C41.6117 72.8864 41.6649 72.8065 41.7449 72.7799L42.2777 72.5667C43.3038 72.1721 43.3165 72.1412 43.7273 71.1395L43.7429 71.1015L43.956 70.5954C44.0093 70.5155 44.0892 70.4622 44.1691 70.4622C44.2756 70.4622 44.3556 70.5155 44.3822 70.5954L44.5953 71.1282C44.99 72.1543 45.0208 72.167 46.0225 72.5778L46.0605 72.5934ZM44.2224 74.618C44.6486 73.5524 44.7552 73.4725 45.7941 73.0463C45.7941 73.0463 45.8208 73.0196 45.8208 72.993C45.8208 72.9663 45.8208 72.9397 45.7941 72.9397C44.7285 72.5135 44.6486 72.4069 44.2224 71.368C44.2224 71.3413 44.1957 71.3413 44.1691 71.3413C44.1424 71.3413 44.1158 71.3413 44.1158 71.368C43.6896 72.4335 43.583 72.5135 42.5441 72.9397C42.5174 72.9397 42.5174 72.9663 42.5174 72.993C42.5174 73.0196 42.5174 73.0463 42.5441 73.0463C43.6096 73.4725 43.6896 73.579 44.1158 74.618C44.1158 74.6446 44.1424 74.6446 44.1691 74.6446C44.1957 74.6446 44.2224 74.6446 44.2224 74.618ZM9.35075 20.0331L9.88355 20.2462L9.92152 20.2618C10.9232 20.6726 10.9541 20.6852 11.3487 21.7114L11.5619 22.2175C11.5885 22.2974 11.6684 22.3507 11.775 22.3507C11.8549 22.3507 11.9348 22.2974 11.9881 22.2175L12.2012 21.7114L12.2168 21.6734C12.6276 20.6717 12.6403 20.6408 13.6664 20.2462L14.1726 20.0331C14.2525 20.0064 14.3058 19.9265 14.3058 19.8199C14.3058 19.74 14.2525 19.6601 14.1726 19.6068L13.6664 19.3937L13.6284 19.3781C12.6267 18.9673 12.5959 18.9547 12.2012 17.9285L11.9881 17.3957C11.9615 17.3158 11.8549 17.2625 11.775 17.2625C11.6951 17.2625 11.6151 17.2892 11.5619 17.3957L11.3487 17.9019L11.3332 17.9399C10.9223 18.9415 10.9097 18.9724 9.88355 19.3671L9.35075 19.5802C9.27083 19.6068 9.21755 19.6867 9.21755 19.7933C9.21755 19.9265 9.27083 20.0064 9.35075 20.0331ZM10.1499 19.7933C11.1889 19.3671 11.2955 19.2871 11.7217 18.2216C11.7483 18.1949 11.8016 18.1949 11.8283 18.2216C12.2545 19.2605 12.3344 19.3671 13.4 19.7933C13.4266 19.7933 13.4266 19.8199 13.4266 19.8466C13.4266 19.8732 13.4266 19.8999 13.4 19.8999C12.361 20.3261 12.2545 20.406 11.8283 21.4716C11.8283 21.4982 11.8016 21.4982 11.775 21.4982C11.7483 21.4982 11.7217 21.4982 11.7217 21.4716C11.2955 20.4327 11.2155 20.3261 10.1499 19.8999C10.1233 19.8999 10.1233 19.8732 10.1233 19.8466C10.1233 19.8199 10.1233 19.7933 10.1499 19.7933ZM3.43678 6.10056L2.93062 5.88744C2.8507 5.8608 2.79742 5.78088 2.74414 5.64768C2.74414 5.54112 2.79742 5.4612 2.87734 5.43456L3.41013 5.22145C4.43627 4.82678 4.44893 4.79592 4.85975 3.79423C4.86487 3.78173 4.87007 3.76907 4.87532 3.75626L5.08844 3.2501C5.14172 3.14354 5.22164 3.11691 5.30156 3.11691C5.38148 3.11691 5.48804 3.17018 5.51468 3.2501L5.7278 3.75626C6.12247 4.7824 6.15332 4.79505 7.15501 5.20587C7.16752 5.211 7.18017 5.21619 7.19299 5.22145L7.72578 5.43456C7.8057 5.48784 7.85898 5.56776 7.85898 5.64768C7.85898 5.75424 7.8057 5.83416 7.72578 5.8608L7.21962 6.07392C6.19348 6.46859 6.18083 6.49944 5.77001 7.50113C5.76488 7.51364 5.75969 7.52629 5.75444 7.5391L5.54132 8.0719C5.48804 8.15182 5.40812 8.2051 5.3282 8.2051C5.22164 8.2051 5.14172 8.15182 5.11508 8.0719L4.90196 7.56575C4.5073 6.53961 4.47644 6.52695 3.47475 6.11614C3.46225 6.11101 3.44959 6.10581 3.43678 6.10056ZM5.30156 4.07593C4.87532 5.14153 4.76877 5.22145 3.72982 5.64768C3.70318 5.64768 3.70317 5.67432 3.70317 5.70096C3.70317 5.7276 3.70318 5.75424 3.72982 5.75424C4.79541 6.18048 4.87532 6.28703 5.30156 7.32599C5.30156 7.35263 5.3282 7.35263 5.35484 7.35263C5.38148 7.35263 5.40812 7.35263 5.40812 7.32599C5.83435 6.2604 5.94092 6.18048 6.97987 5.75424C7.0065 5.75424 7.0065 5.72761 7.0065 5.70097V5.70096V5.70095C7.0065 5.67432 7.0065 5.64768 6.97987 5.64768C5.91428 5.22145 5.83435 5.11489 5.40812 4.07593C5.38148 4.04929 5.3282 4.04929 5.30156 4.07593Z" fill="#FC4163"/>
</svg>
